<?xml version="1.0" encoding="utf-8"?>
<!-- Generator: Adobe Illustrator 23.0.2, SVG Export Plug-In . SVG Version: 6.00 Build 0)  -->
<svg version="1.1" id="Layer_1" xmlns="http://www.w3.org/2000/svg" xmlns:xlink="http://www.w3.org/1999/xlink" x="0px" y="0px"
	 viewBox="0 0 459.4 125.9" style="enable-background:new 0 0 459.4 125.9;" xml:space="preserve">
<style type="text/css">
	.st0{fill:#265B3C;}
	.st1{fill:#70A351;}
	.st2{font-family:'Lato-Medium';}
	.st3{font-size:24px;}
</style>
<g>
	<g>
		<path class="st0" d="M197.4,82.5c0,0-3.8,3.9-3.6,24.9c0,0-4.4,3.7-7-1.8c0,0-8.7-15.7-11-22.4c0,0-4.7,11.8-4.9,26.1l-6.1-0.2
			c0,0,0.4-19.9,5.9-28.6c0,0,4.2-9-2.5-7.4c0,0-0.4-7.6,5.3-7.6c0,0,5.7,1.8,7.2,10.6c0,0,0.2,10.6,7.8,18.5c0,0-1.3-12.7,8.7-24.9
			c0,0,4-3.9,3.8,3c0,0-0.8,4.9,0.8,7.2C201.8,79.8,201.8,85.1,197.4,82.5z"/>
		<path class="st0" d="M157.8,80c0,0-10.4,7.2-22.4,9.7c0,0-1.5-4.9,4.9-14.8c0.6-1,1.2-2.9,1-4c-0.5-2.3-3.5-2.7-5-1.7
			c-2,1.2-3.3,4.4-4.2,6.5c0,0-6.8,14.8-7.6,22.9c0,0-1.9,14.8,3.2,15.5c0,0,1.9,0.2,1.9-4.8c0,0-2.3-10.6,6.6-13.6
			c0,0,25.2-6.9,26.9-15.5c0,0,7.6-16.9-17.1-21.5c0,0-13.5-1.4-19.5,3.7c0,0-9.1,6.5-9.5,13.4c0,0-1.1,8.1,4.2,11.5
			c0,0,4.2,2.8,1.7-2.3c0,0-2.3-5.8-1.7-15c0,0,13.3-10.2,31.7-4.2C152.7,65.7,161,69.1,157.8,80z"/>
		<g>
			<g>
				<path class="st1" d="M106.2,37.1c0,0,5.5-21.8-19.9-21.1c0,0-4.6-11.7-18.4-2.7c-0.3,0.2-2-0.4-2.3-0.4c-1.9-0.2-3.7,0-5.5,0.4
					c-5.8,1.3-9.9,6.9-11,13.1c-0.4,2.5-0.4,5.5-1.6,7.7c-1.3,2.3-2.8,1.6-4.7,2.2c-3.6,1.1-6.6,2.5-8.6,6.2
					c-1.8,3.5-2.1,7.9-0.6,11.6c1.8,4.2,6.4,7.6,10.7,7.6c0,0,30.7,0.3,26.4,19.4l6.4,1c0,0,0.2-3.1,1.3-5.4c0,0,0.7,0.7,4.5,0.7
					c0,0-8.9-18.1,17.5-13.4c0,0,22.1,4.7,25.7-13.7C126.1,50.5,130.7,30.1,106.2,37.1z M115.7,49.9c-1.5,9.8-22.5,7.4-22.5,7.4
					c-2.3-0.1-5.1,0.3-7.3,1.1c-4.4,1.6-7.9,7-8.4,12.1c-0.6-1.6-2.2-1.9-2.9-3.4c-0.5-1.1-0.2-2.5,0.4-3.5c-1.1-0.2-2.7-0.2-3.6-1
					c-1.2-1.1-0.6-2.8,0-4c0.1-0.2,1.4-2.5,1.7-2.4c-6.5-1.9-12.8-2.1-19.3-0.8c-2.5,0.5-5.4,0.6-8,0.3c-2.5-0.4-4.5-2.4-4.9-5.1
					c-0.3-2-0.1-4.3,1.1-5.9c1.6-2.2,3.5-3.6,6-4.3c1.5,4.4,3.7,7.9,7.8,9.6c5.1,2.1,6.8-1.8,6.8-1.8c-4.3-0.8-5.1-3.7-5.1-3.7
					c-7.2-5,0.2-9.2,0.2-9.2c1.2-0.7,2.4-3.3,2.8-4.6c-0.8-0.4-2.8-0.1-2.9-1.5c-0.1-1.3,2.2-3.7,3-4.4c1.3-1.2,2.8-2.1,4.4-2.5
					c0.4-0.1,5,0.1,5,0.2c3.9-7.9,10.4-6.9,10.4-6.9c5.3,0.5,1.5,3.7,1.5,3.7c-6.8,5.3-4.1,24-4.1,24c0,0,1-0.7,1.1-0.8
					c0.4-0.4,0.7-0.9,1-1.4c1.1-2.1,1.8-4.5,2.3-6.8c0.2-1,0.3-2.1,0.6-3.1c0.5-1.4,1.2-2.7,2-4c0.6-1,1.4-2.1,2.5-2.5
					c3.2-1.5,7.2,1.9,9.4,4.2c1.8,1.9,3.1,4,4.5,6.2C104.6,39.9,88,47,88,47c7.5,2.6,11.1-1.6,11.1-1.6l-1.2,4.7
					c0.1-0.2,2.9,0.1,3.3,0c1.8-0.2,3-2.2,4.2-3.5c1.4-1.4,3.2-2.9,5.1-3.3C114.5,42.5,116.3,46,115.7,49.9z"/>
			</g>
		</g>
		<path class="st0" d="M115.8,94.2c-1.2-2.3-1.9-1-1.9-1c-2.8,4.6-3.7,4.6-3.7,4.6c-3.4-7.4-2.3-29.1-2.3-29.1
			c-4.9-0.2-5.1,0.7-5.1,0.7c-4.9,7.8-12.1,22.4-12.1,22.4c-7.2,14.3-6.3,16.3-6.3,16.3l5.8,0.1C95.8,96.6,105,96,105,96
			c-1,4-0.6,7.8-0.6,7.8c0.2,6.4,7.5,5.4,7.5,5.4c-0.6-6.7,3.2-10.6,3.2-10.6C117,96.1,115.8,94.2,115.8,94.2z M94.9,97.3H93
			c0.7-8.1,8.7-15.8,8.7-15.8c1.8-1.6,2.1,0.3,2.1,0.3c-0.1,4.3,0.6,9.5,0.6,9.5C97.1,93,94.9,97.3,94.9,97.3z"/>
	</g>
	<text transform="matrix(1 0 0 1 212.4818 83.9316)"><tspan x="0" y="0" class="st0 st2 st3">Arab Group For The</tspan><tspan x="0" y="25" class="st0 st2 st3">Protection Of Nature</tspan></text>
</g>
</svg>
